<?xml version="1.0" encoding="UTF-8" standalone="no"?>
<!-- Created with Inkscape (http://www.inkscape.org/) -->

<svg
   xmlns:dc="http://purl.org/dc/elements/1.1/"
   xmlns:cc="http://creativecommons.org/ns#"
   xmlns:rdf="http://www.w3.org/1999/02/22-rdf-syntax-ns#"
   xmlns:svg="http://www.w3.org/2000/svg"
   xmlns="http://www.w3.org/2000/svg"
   xmlns:sodipodi="http://sodipodi.sourceforge.net/DTD/sodipodi-0.dtd"
   xmlns:inkscape="http://www.inkscape.org/namespaces/inkscape"
   width="106.38339mm"
   height="155.06235mm"
   viewBox="0 0 106.38339 155.06235"
   version="1.1"
   id="svg8"
   inkscape:export-filename="D:\work\RCWebsite\RCWebsite\src\resources\CustomBranch.png"
   inkscape:export-xdpi="238.75999"
   inkscape:export-ydpi="238.75999"
   inkscape:version="0.92.2 (5c3e80d, 2017-08-06)"
   sodipodi:docname="CustomBranch.svg">
  <defs
     id="defs2" />
  <sodipodi:namedview
     id="base"
     pagecolor="#ffffff"
     bordercolor="#666666"
     borderopacity="1.0"
     inkscape:pageopacity="0.0"
     inkscape:pageshadow="2"
     inkscape:zoom="0.35"
     inkscape:cx="-1619.9211"
     inkscape:cy="281.49097"
     inkscape:document-units="mm"
     inkscape:current-layer="layer1"
     showgrid="false"
     inkscape:measure-start="0,0"
     inkscape:measure-end="0,0"
     inkscape:window-width="1920"
     inkscape:window-height="1017"
     inkscape:window-x="-8"
     inkscape:window-y="-8"
     inkscape:window-maximized="1" />
  <metadata
     id="metadata5">
    <rdf:RDF>
      <cc:Work
         rdf:about="">
        <dc:format>image/svg+xml</dc:format>
        <dc:type
           rdf:resource="http://purl.org/dc/dcmitype/StillImage" />
        <dc:title />
      </cc:Work>
    </rdf:RDF>
  </metadata>
  <g
     inkscape:label="Ebene 1"
     inkscape:groupmode="layer"
     id="layer1"
     transform="translate(-38.910659,-68.248806)">
    <path
       id="path815"
       d="m 145.29405,106.34881 c 0,-11.694584 -9.47208,-21.166664 -21.16666,-21.166664 -11.69459,0 -21.16667,9.47208 -21.16667,21.166664 0,9.63084 6.42937,17.75354 15.21354,20.32 -0.15875,4.25979 -1.11125,7.54063 -2.91042,9.76313 -4.07458,5.08 -13.04395,5.92666 -22.542505,6.79979 -7.46125,0.68792 -15.18708,1.42875 -21.510621,4.47146 v -38.1 c 8.598958,-2.69875 14.816671,-10.715634 14.816671,-20.187714 0,-11.69458 -9.472088,-21.16667 -21.166671,-21.16667 -11.694583,0 -21.166667,9.47209 -21.166667,21.16667 0,9.47208 6.217709,17.488964 14.816667,20.187714 v 52.73146 c -8.598958,2.7252 -14.816667,10.74208 -14.816667,20.21416 0,11.69458 9.472084,21.16667 21.166667,21.16667 11.694583,0 21.166671,-9.47209 21.166671,-21.16667 0,-8.99583 -5.609171,-16.69521 -13.546671,-19.73791 0.820208,-1.37584 2.06375,-2.59292 3.942291,-3.54542 4.28625,-2.16958 10.68917,-2.75167 17.48896,-3.38667 11.165425,-1.03187 23.812505,-2.2225 31.273755,-11.48291 3.70417,-4.60375 5.58271,-10.53042 5.715,-17.96521 8.36083,-2.8575 14.39333,-10.76854 14.39333,-20.08188 z M 64.860714,85.182146 c 2.328333,0 4.233333,1.905 4.233333,4.23333 0,2.32833 -1.905,4.23333 -4.233333,4.23333 -2.328334,0 -4.233334,-1.905 -4.233334,-4.23333 0,-2.32833 1.905,-4.23333 4.233334,-4.23333 z m 0,101.599994 c -2.328334,0 -4.233334,-1.905 -4.233334,-4.23333 0,-2.32833 1.905,-4.23333 4.233334,-4.23333 2.328333,0 4.233333,1.905 4.233333,4.23333 0,2.32833 -1.905,4.23333 -4.233333,4.23333 z m 59.266676,-84.66666 c 2.32833,0 4.23333,1.905 4.23333,4.23333 0,2.32834 -1.905,4.23334 -4.23333,4.23334 -2.32834,0 -4.23334,-1.905 -4.23334,-4.23334 0,-2.32833 1.905,-4.23333 4.23334,-4.23333 z"
       inkscape:connector-curvature="0"
       style="fill:#218ff7;fill-opacity:1;stroke-width:0.26458332" />
    <flowRoot
       xml:space="preserve"
       id="flowRoot826"
       style="font-style:normal;font-variant:normal;font-weight:bold;font-stretch:normal;font-size:40px;line-height:1.25;font-family:'Segoe UI';-inkscape-font-specification:'Segoe UI Bold';letter-spacing:0px;word-spacing:0px;fill:#000000;fill-opacity:1;stroke:none"
       transform="scale(0.26458333)"><flowRegion
         id="flowRegion828"
         style="font-style:normal;font-variant:normal;font-weight:bold;font-stretch:normal;font-family:'Segoe UI';-inkscape-font-specification:'Segoe UI Bold'"><rect
           id="rect830"
           width="697.14288"
           height="322.85715"
           x="171.42857"
           y="808.23395"
           style="font-style:normal;font-variant:normal;font-weight:bold;font-stretch:normal;font-family:'Segoe UI';-inkscape-font-specification:'Segoe UI Bold'" /></flowRegion><flowPara
         id="flowPara832" /></flowRoot>    <flowRoot
       xml:space="preserve"
       id="flowRoot842"
       style="font-style:normal;font-weight:normal;font-size:40px;line-height:1.25;font-family:sans-serif;letter-spacing:0px;word-spacing:0px;fill:#000000;fill-opacity:1;stroke:none"
       transform="matrix(0.26458333,0,0,0.26458333,493.79865,138.55238)"><flowRegion
         id="flowRegion844"><rect
           id="rect846"
           width="1471.4286"
           height="760"
           x="-1725.7142"
           y="252.21645" /></flowRegion><flowPara
         id="flowPara848"
         style="font-style:normal;font-variant:normal;font-weight:600;font-stretch:normal;font-size:74.66666412px;font-family:'Segoe UI';-inkscape-font-specification:'Segoe UI Semi-Bold'"><flowSpan
           style="fill:#343a40;fill-opacity:1"
           id="flowSpan862">RC </flowSpan><flowSpan
           style="fill:#2193f3;fill-opacity:1"
           id="flowSpan850">Custom</flowSpan></flowPara></flowRoot>  </g>
</svg>
