<?xml version="1.0" encoding="UTF-8" standalone="no"?>
<!-- Created with Inkscape (http://www.inkscape.org/) -->

<svg
   xmlns:dc="http://purl.org/dc/elements/1.1/"
   xmlns:cc="http://creativecommons.org/ns#"
   xmlns:rdf="http://www.w3.org/1999/02/22-rdf-syntax-ns#"
   xmlns:svg="http://www.w3.org/2000/svg"
   xmlns="http://www.w3.org/2000/svg"
   xmlns:sodipodi="http://sodipodi.sourceforge.net/DTD/sodipodi-0.dtd"
   xmlns:inkscape="http://www.inkscape.org/namespaces/inkscape"
   width="207.43333mm"
   height="207.43333mm"
   viewBox="0 0 207.43333 207.43333"
   version="1.1"
   id="svg8"
   inkscape:version="0.92.2 (5c3e80d, 2017-08-06)"
   sodipodi:docname="div-chevron-icon.svg"
   inkscape:export-filename="C:\Users\NB\Desktop\div-plus-icon.png"
   inkscape:export-xdpi="12.244898"
   inkscape:export-ydpi="12.244898">
  <defs
     id="defs2" />
  <sodipodi:namedview
     id="base"
     pagecolor="#ffffff"
     bordercolor="#666666"
     borderopacity="1.0"
     inkscape:pageopacity="0.0"
     inkscape:pageshadow="2"
     inkscape:zoom="1"
     inkscape:cx="243.32659"
     inkscape:cy="372.56638"
     inkscape:document-units="mm"
     inkscape:current-layer="layer1"
     showgrid="false"
     inkscape:snap-bbox="true"
     inkscape:snap-bbox-midpoints="true"
     inkscape:window-width="1920"
     inkscape:window-height="1017"
     inkscape:window-x="-8"
     inkscape:window-y="-8"
     inkscape:window-maximized="1"
     inkscape:snap-nodes="true"
     inkscape:snap-global="true" />
  <metadata
     id="metadata5">
    <rdf:RDF>
      <cc:Work
         rdf:about="">
        <dc:format>image/svg+xml</dc:format>
        <dc:type
           rdf:resource="http://purl.org/dc/dcmitype/StillImage" />
        <dc:title></dc:title>
      </cc:Work>
    </rdf:RDF>
  </metadata>
  <g
     inkscape:label="Ebene 1"
     inkscape:groupmode="layer"
     id="layer1"
     transform="translate(-5.1593884,-59.801051)">
    <circle
       style="opacity:1;fill:#ffffff;fill-opacity:1;fill-rule:nonzero;stroke:#ffffff;stroke-width:0.34862742;stroke-opacity:0.96784568"
       id="path828"
       cx="108.87605"
       cy="163.51772"
       r="103.54235" />
    <path
       id="path843"
       d="m 174.49272,163.51771 c 0,36.24792 -29.36875,65.61667 -65.61667,65.61667 -36.247918,0 -65.616668,-29.36875 -65.616668,-65.61667 0,-36.24791 29.36875,-65.61666 65.616668,-65.61666 36.24792,0 65.61667,29.36875 65.61667,65.61666 z m -61.11876,30.13605 35.85105,-35.85105 c 2.48708,-2.48708 2.48708,-6.50875 0,-8.96937 l -4.49792,-4.49792 c -2.48708,-2.48708 -6.50875,-2.48708 -8.96938,0 l -26.88166,26.88167 -26.881668,-26.88167 c -2.487083,-2.48708 -6.50875,-2.48708 -8.969375,0 l -4.497917,4.49792 c -2.487083,2.48708 -2.487083,6.50875 0,8.96937 l 35.85104,35.85105 c 2.48708,2.48708 6.50875,2.48708 8.99583,0 z"
       inkscape:connector-curvature="0"
       style="fill:#ff5722;fill-opacity:1;stroke-width:0.26458332" />
  </g>
</svg>
