<?xml version="1.0" encoding="UTF-8" standalone="no"?>
<!-- Created with Inkscape (http://www.inkscape.org/) -->

<svg
   xmlns:dc="http://purl.org/dc/elements/1.1/"
   xmlns:cc="http://creativecommons.org/ns#"
   xmlns:rdf="http://www.w3.org/1999/02/22-rdf-syntax-ns#"
   xmlns:svg="http://www.w3.org/2000/svg"
   xmlns="http://www.w3.org/2000/svg"
   xmlns:sodipodi="http://sodipodi.sourceforge.net/DTD/sodipodi-0.dtd"
   xmlns:inkscape="http://www.inkscape.org/namespaces/inkscape"
   width="207.43333mm"
   height="207.43333mm"
   viewBox="0 0 207.43333 207.43333"
   version="1.1"
   id="svg8"
   inkscape:version="0.92.2 (5c3e80d, 2017-08-06)"
   sodipodi:docname="div-plus-icon.svg"
   inkscape:export-filename="C:\Users\NB\Desktop\div-plus-icon.png"
   inkscape:export-xdpi="12.24"
   inkscape:export-ydpi="12.24">
  <defs
     id="defs2" />
  <sodipodi:namedview
     id="base"
     pagecolor="#ffffff"
     bordercolor="#666666"
     borderopacity="1.0"
     inkscape:pageopacity="0.0"
     inkscape:pageshadow="2"
     inkscape:zoom="1"
     inkscape:cx="291.82659"
     inkscape:cy="372.56638"
     inkscape:document-units="mm"
     inkscape:current-layer="layer1"
     showgrid="false"
     inkscape:snap-bbox="true"
     inkscape:snap-bbox-midpoints="true"
     inkscape:window-width="1920"
     inkscape:window-height="1017"
     inkscape:window-x="-8"
     inkscape:window-y="-8"
     inkscape:window-maximized="1" />
  <metadata
     id="metadata5">
    <rdf:RDF>
      <cc:Work
         rdf:about="">
        <dc:format>image/svg+xml</dc:format>
        <dc:type
           rdf:resource="http://purl.org/dc/dcmitype/StillImage" />
        <dc:title></dc:title>
      </cc:Work>
    </rdf:RDF>
  </metadata>
  <g
     inkscape:label="Ebene 1"
     inkscape:groupmode="layer"
     id="layer1"
     transform="translate(-5.1593884,-59.801051)">
    <circle
       style="opacity:1;fill:#ffffff;fill-opacity:1;fill-rule:nonzero;stroke:#ffffff;stroke-width:0.34862742;stroke-opacity:0.96784568"
       id="path828"
       cx="108.87605"
       cy="163.51772"
       r="103.54235" />
    <path
       id="path830"
       d="m 108.87605,97.901049 c -36.247915,0 -65.616666,29.368751 -65.616666,65.616661 0,36.24792 29.368751,65.61667 65.616666,65.61667 36.24792,0 65.61667,-29.36875 65.61667,-65.61667 0,-36.24791 -29.36875,-65.616661 -65.61667,-65.616661 z m 38.1,73.025001 c 0,1.74625 -1.42875,3.175 -3.175,3.175 h -24.34167 v 24.34166 c 0,1.74625 -1.42875,3.175 -3.175,3.175 h -14.81666 c -1.746252,0 -3.175002,-1.42875 -3.175002,-3.175 V 174.10105 H 73.951051 c -1.74625,0 -3.175,-1.42875 -3.175,-3.175 v -14.81667 c 0,-1.74625 1.42875,-3.175 3.175,-3.175 h 24.341667 v -24.34167 c 0,-1.74625 1.42875,-3.175 3.175002,-3.175 h 14.81666 c 1.74625,0 3.175,1.42875 3.175,3.175 v 24.34167 h 24.34167 c 1.74625,0 3.175,1.42875 3.175,3.175 z"
       inkscape:connector-curvature="0"
       style="stroke-width:0.26458332;fill:#ff5722;fill-opacity:1" />
  </g>
</svg>
