<?xml version="1.0" encoding="UTF-8" standalone="no"?>
<!-- Created with Inkscape (http://www.inkscape.org/) -->

<svg
   xmlns:dc="http://purl.org/dc/elements/1.1/"
   xmlns:cc="http://creativecommons.org/ns#"
   xmlns:rdf="http://www.w3.org/1999/02/22-rdf-syntax-ns#"
   xmlns:svg="http://www.w3.org/2000/svg"
   xmlns="http://www.w3.org/2000/svg"
   xmlns:sodipodi="http://sodipodi.sourceforge.net/DTD/sodipodi-0.dtd"
   xmlns:inkscape="http://www.inkscape.org/namespaces/inkscape"
   version="1.1"
   id="svg5083"
   width="382.31128"
   height="345.35956"
   viewBox="0 0 382.31128 345.35956"
   sodipodi:docname="Logo2 CanvasFit.svg"
   inkscape:version="0.92.2 (5c3e80d, 2017-08-06)">
  <metadata
     id="metadata5089">
    <rdf:RDF>
      <cc:Work
         rdf:about="">
        <dc:format>image/svg+xml</dc:format>
        <dc:type
           rdf:resource="http://purl.org/dc/dcmitype/StillImage" />
        <dc:title></dc:title>
      </cc:Work>
    </rdf:RDF>
  </metadata>
  <defs
     id="defs5087" />
  <sodipodi:namedview
     pagecolor="#ffffff"
     bordercolor="#666666"
     borderopacity="1"
     objecttolerance="10"
     gridtolerance="10"
     guidetolerance="10"
     inkscape:pageopacity="0"
     inkscape:pageshadow="2"
     inkscape:window-width="1920"
     inkscape:window-height="1017"
     id="namedview5085"
     showgrid="false"
     inkscape:snap-intersection-paths="true"
     inkscape:zoom="0.78363832"
     inkscape:cx="183.52595"
     inkscape:cy="171.068"
     inkscape:window-x="-8"
     inkscape:window-y="-8"
     inkscape:window-maximized="1"
     inkscape:current-layer="svg5083" />
  <path
     style="fill:#2193f3;fill-opacity:1;stroke:none;stroke-width:0.66666669"
     d="m 318.06585,290.19616 c -0.18582,-0.55 -0.64781,-3.4 -1.02665,-6.33333 -0.37883,-2.93333 -2.506,-17.78333 -4.72703,-33 -2.22104,-15.21667 -4.32688,-29.8716 -4.67966,-32.56651 -0.35278,-2.69492 -0.9275,-6.74492 -1.27718,-9 -0.34966,-2.25509 -1.12074,-7.55016 -1.7135,-11.76682 -2.3439,-16.67359 -3.4228,-24.27094 -5.9879,-42.16543 -0.56493,-3.94099 -1.47714,-10.31543 -2.02714,-14.16543 -0.55,-3.85 -1.46239,-10.22556 -2.02754,-14.1679 -0.56514,-3.94235 -1.46855,-10.31791 -2.00756,-14.16791 -0.53902,-3.85 -1.41082,-10 -1.93736,-13.66667 -0.52652,-3.66666 -1.2853,-9.06666 -1.68617,-12 -0.40087,-2.93333 -1.04967,-6.15833 -1.44177,-7.16666 -0.66772,-1.71712 -0.9719,-1.83544 -4.7987,-1.86651 C 267.99725,78.0434 74.243019,71.68616 73.866949,71.3101 c -0.25698,-0.25698 0.44499,-1.43775 1.55995,-2.62392 C 77.280539,66.71412 128.47507,9.87733 134.61823,2.97123 L 137.26123,0 l 12.357,0.44618 c 11.46468,0.41396 22.65276,0.80884 96.02368,3.38911 14.85,0.52223 37.2,1.26555 49.66666,1.6518 12.46667,0.38626 27.91667,1.00556 34.33334,1.37623 6.41666,0.37068 14.14166,0.67221 17.16666,0.67007 3.025,-0.002 5.5,0.14889 5.5,0.33563 0,0.52093 13.20082,93.27781 15.03721,105.66048 0.51659,3.48333 1.85675,12.93333 2.97813,21 1.12137,8.06666 2.45751,17.51666 2.96918,21 0.51168,3.48333 1.41865,9.78333 2.01548,14 0.59684,4.21666 1.49684,10.51666 2,14 0.50317,3.48333 1.40204,9.78333 1.99751,14 0.59546,4.21666 1.51462,10.40382 2.04257,13.74924 0.52796,3.34542 0.95537,6.94542 0.9498,8 -0.0109,2.06934 1.98099,-0.20722 -39.30116,44.91742 -11.23738,12.28334 -21.36804,23.38334 -22.51258,24.66667 -1.5652,1.75499 -2.16474,2.08547 -2.41886,1.33333 z"
     id="path5103"
     inkscape:connector-curvature="0" />
  <path
     style="fill:#80c1ff;fill-opacity:1;stroke:#0000c8;stroke-width:1px;stroke-linecap:butt;stroke-linejoin:miter;stroke-opacity:0"
     d="m 109.47524,30.21283 212.5,10 33.75,210 -37.65939,39.98333 L 285.72524,77.71283 73.813909,71.15107 Z"
     id="path826"
     inkscape:connector-curvature="0" />
  <path
     style="fill:#006acc;fill-opacity:1;stroke:#000000;stroke-width:1px;stroke-linecap:butt;stroke-linejoin:miter;stroke-opacity:0"
     d="m 285.72524,77.71283 36.25,-37.5 33.75,210 -37.27241,40.36197 z"
     id="path828"
     inkscape:connector-curvature="0" />
  <path
     style="fill:#2193f3;fill-opacity:1;stroke:none;stroke-width:0.53266299"
     d="m 70.280779,303.8688 c 0.40938,-0.2181 2.59592,-0.95341 4.85897,-1.63401 2.26305,-0.6806 13.6925,-4.29114 25.398781,-8.02343 11.70629,-3.73229 22.98474,-7.30061 25.06324,-7.92963 2.0785,-0.62901 5.19632,-1.60944 6.9285,-2.17874 1.73219,-0.56929 5.80595,-1.86662 9.05281,-2.88298 12.83879,-4.01884 18.68739,-5.85864 32.45983,-10.21083 3.03317,-0.95852 7.93944,-2.50766 10.90282,-3.44256 2.96339,-0.93489 7.87052,-2.48432 10.90473,-3.44319 3.03421,-0.95885 7.9425,-2.50121 10.90733,-3.42743 2.96482,-0.92624 7.69941,-2.41431 10.52133,-3.30684 2.82191,-0.8925 6.98,-2.19381 9.24019,-2.89179 2.26019,-0.69797 4.718,-1.62936 5.46183,-2.06975 1.26668,-0.74997 1.32034,-1.00517 0.84654,-4.02593 -1.82383,-11.62777 -22.04177,-165.19444 -21.79428,-165.53987 0.16911,-0.23604 1.19133,0.16358 2.27159,0.88806 1.79597,1.20446 53.26734,34.16083 59.51143,38.10429 l 2.68642,1.69661 1.25731,9.79928 c 1.16653,9.09165 2.31208,17.96278 9.83191,76.13798 1.52199,11.77443 3.84629,29.49001 5.16514,39.36793 1.31883,9.87793 2.84243,22.138 3.38576,27.24461 0.54333,5.10659 1.31153,11.23558 1.70711,13.61994 0.39548,2.38438 0.59881,4.3551 0.45159,4.37942 -0.41065,0.0678 -71.81313,22.55241 -81.33542,25.61245 -2.67869,0.86081 -9.95373,3.1478 -16.16678,5.08218 -6.21303,1.93438 -13.48859,4.21819 -16.16792,5.07513 -2.67933,0.85694 -7.5276,2.39226 -10.77394,3.41181 -3.24633,1.01957 -8.09551,2.54939 -10.77594,3.39962 -2.68044,0.85023 -7.52977,2.37917 -10.77628,3.39766 -3.24651,1.01846 -8.00424,2.5487 -10.57273,3.40051 -2.56849,0.85182 -5.35076,1.65752 -6.18281,1.79044 -1.63271,0.26087 0.4213,1.53466 -40.526511,-25.13273 -11.14638,-7.25911 -21.21579,-13.79987 -22.3765,-14.53501 -1.58729,-1.00535 -1.92587,-1.43495 -1.36605,-1.7332 z"
     id="path5103-1"
     inkscape:connector-curvature="0" />
  <path
     style="fill:#80c1ff;fill-opacity:1;stroke:#0000c8;stroke-width:0.79899448px;stroke-linecap:butt;stroke-linejoin:miter;stroke-opacity:0"
     d="M 248.06757,105.58086 267.85482,274.3994 106.70391,328.34979 70.280779,303.8688 233.57286,250.70608 211.15186,82.7993 Z"
     id="path826-7"
     inkscape:connector-curvature="0" />
  <path
     style="fill:#006acc;fill-opacity:1;stroke:#000000;stroke-width:0.79899448px;stroke-linecap:butt;stroke-linejoin:miter;stroke-opacity:0"
     d="M 233.57286,250.70608 267.85482,274.3994 106.70391,328.34979 70.032689,304.22316 Z"
     id="path828-2"
     inkscape:connector-curvature="0" />
  <path
     style="fill:#2193f3;fill-opacity:1;stroke:none;stroke-width:0.42122069"
     d="m 23.217289,115.23014 c 0.22795,0.28737 1.11136,1.88343 1.96313,3.54678 0.85175,1.66336 5.28826,10.03946 9.85889,18.61353 4.57063,8.57405 8.9528,16.83869 9.73813,18.36584 0.78536,1.52716 1.99208,3.81271 2.68165,5.07898 0.68955,1.2663 2.27897,4.25025 3.53202,6.63104 4.95486,9.41417 7.21903,13.70143 12.56617,23.79434 1.17764,2.22281 3.0815,5.81848 4.23082,7.99038 1.14933,2.17189 3.05354,5.76819 4.23158,7.99174 1.17805,2.22358 3.07691,5.82179 4.2197,7.99604 1.14278,2.17424 2.97469,5.64506 4.0709,7.71294 1.09621,2.06792 2.70071,5.1169 3.56558,6.77557 0.86486,1.65864 1.93945,3.43778 2.38797,3.95364 0.76377,0.87845 0.96993,0.88384 3.25213,0.085 8.78486,-3.07492 125.356431,-40.67598 125.660361,-40.53268 0.2077,0.0979 0.0425,0.94998 -0.36719,1.89346 -0.68107,1.56855 -18.98435,46.29986 -21.16234,51.71854 l -0.93704,2.33128 -7.44325,2.37384 c -6.90576,2.20244 -13.64296,4.35712 -57.82327,18.49308 -8.94191,2.86106 -22.39087,7.19249 -29.886521,9.62538 -7.49565,2.43291 -16.8151,5.36439 -20.70988,6.51443 -3.89475,1.15001 -8.55274,2.62059 -10.35106,3.26793 -1.79842,0.64709 -3.30234,1.0861 -3.34221,0.97509 -0.11127,-0.30977 -27.77164,-52.64724 -31.50826,-59.61825 -1.05116,-1.961 -3.86636,-7.29411 -6.25601,-11.85137 -2.38966,-4.55724 -5.20248,-9.89123 -6.25069,-11.85327 -1.04823,-1.96205 -2.93308,-5.51457 -4.18856,-7.89449 -1.25548,-2.37992 -3.13618,-5.93394 -4.17934,-7.8978 -1.0431596,-1.96385 -2.9231996,-5.5181 -4.1778596,-7.89833 -1.25467,-2.38021 -3.12267,-5.86303 -4.1511,-7.73959 -1.02846,-1.87656 -2.05148996,-3.92597 -2.27340996,-4.55425 -0.43581,-1.23273 -1.13371,0.5463 13.77671956,-35.10344 4.05876,-9.7042 7.71215,-18.46836 8.11865,-19.47593 0.55591,-1.37787 0.84183,-1.70244 1.15359,-1.30946 z"
     id="path5103-2"
     inkscape:connector-curvature="0" />
  <path
     style="fill:#80c1ff;fill-opacity:1;stroke:#0000c8;stroke-width:0.63183099px;stroke-linecap:butt;stroke-linejoin:miter;stroke-opacity:0"
     d="M 202.77964,225.27642 74.283089,264.71497 9.3630294,147.04895 23.217289,115.23014 87.829629,234.67386 215.24183,193.31653 Z"
     id="path826-73"
     inkscape:connector-curvature="0" />
  <path
     style="fill:#006acc;fill-opacity:1;stroke:#000000;stroke-width:0.63183099px;stroke-linecap:butt;stroke-linejoin:miter;stroke-opacity:0"
     d="M 87.829629,234.67386 74.283089,264.71497 9.3630294,147.04895 22.906299,115.08765 Z"
     id="path828-1"
     inkscape:connector-curvature="0" />
</svg>
