<?xml version="1.0" encoding="UTF-8" standalone="no"?>
<!-- Created with Inkscape (http://www.inkscape.org/) -->

<svg
   xmlns:dc="http://purl.org/dc/elements/1.1/"
   xmlns:cc="http://creativecommons.org/ns#"
   xmlns:rdf="http://www.w3.org/1999/02/22-rdf-syntax-ns#"
   xmlns:svg="http://www.w3.org/2000/svg"
   xmlns="http://www.w3.org/2000/svg"
   xmlns:sodipodi="http://sodipodi.sourceforge.net/DTD/sodipodi-0.dtd"
   xmlns:inkscape="http://www.inkscape.org/namespaces/inkscape"
   version="1.1"
   id="svg5083"
   width="1943.2341"
   height="345.7851"
   viewBox="0 0 1943.2341 345.78511"
   sodipodi:docname="RCPlatformLogo.svg"
   inkscape:version="0.92.2 (5c3e80d, 2017-08-06)">
  <metadata
     id="metadata5089">
    <rdf:RDF>
      <cc:Work
         rdf:about="">
        <dc:format>image/svg+xml</dc:format>
        <dc:type
           rdf:resource="http://purl.org/dc/dcmitype/StillImage" />
        <dc:title></dc:title>
      </cc:Work>
    </rdf:RDF>
  </metadata>
  <defs
     id="defs5087" />
  <sodipodi:namedview
     pagecolor="#ffffff"
     bordercolor="#666666"
     borderopacity="1"
     objecttolerance="10"
     gridtolerance="10"
     guidetolerance="10"
     inkscape:pageopacity="0"
     inkscape:pageshadow="2"
     inkscape:window-width="1920"
     inkscape:window-height="1017"
     id="namedview5085"
     showgrid="false"
     inkscape:snap-intersection-paths="true"
     inkscape:zoom="0.5"
     inkscape:cx="400.0988"
     inkscape:cy="120.02402"
     inkscape:window-x="-8"
     inkscape:window-y="-8"
     inkscape:window-maximized="1"
     inkscape:current-layer="svg5083" />
  <path
     style="fill:#2193f3;fill-opacity:1;stroke:none;stroke-width:0.66666669"
     d="m 318.06585,290.62171 c -0.18582,-0.55 -0.64781,-3.4 -1.02665,-6.33333 -0.37883,-2.93333 -2.506,-17.78333 -4.72703,-33 -2.22104,-15.21667 -4.32688,-29.8716 -4.67966,-32.56651 -0.35278,-2.69492 -0.9275,-6.74492 -1.27718,-9 -0.34966,-2.25509 -1.12074,-7.55016 -1.7135,-11.76682 -2.3439,-16.67359 -3.4228,-24.27094 -5.9879,-42.16543 -0.56493,-3.94099 -1.47714,-10.31543 -2.02714,-14.16543 -0.55,-3.85 -1.46239,-10.22556 -2.02754,-14.1679 -0.56514,-3.94235 -1.46855,-10.31791 -2.00756,-14.16791 -0.53902,-3.85 -1.41082,-10 -1.93736,-13.666674 -0.52652,-3.666658 -1.2853,-9.066658 -1.68617,-11.999998 -0.40087,-2.93333 -1.04967,-6.15833 -1.44177,-7.16666 -0.66772,-1.71712 -0.9719,-1.83544 -4.7987,-1.86651 -14.73044,-0.11959 -208.484671,-6.47683 -208.860741,-6.85289 -0.25698,-0.25698 0.44499,-1.43775 1.55995,-2.62392 1.85364,-1.97206 53.048171,-58.80885 59.191331,-65.714949 l 2.643,-2.97123001 12.357,0.44618 C 161.08291,1.285689 172.27099,1.680569 245.64191,4.260839 c 14.85,0.52223 37.2,1.26555 49.66666,1.6518 12.46667,0.38626 27.91667,1.00556 34.33334,1.37623 6.41666,0.37068 14.14166,0.67221 17.16666,0.67007 3.025,-0.002 5.5,0.14889 5.5,0.33563 0,0.5209293 13.20082,93.277811 15.03721,105.660481 0.51659,3.48333 1.85675,12.93333 2.97813,21 1.12137,8.06666 2.45751,17.51666 2.96918,21 0.51168,3.48333 1.41865,9.78333 2.01548,14 0.59684,4.21666 1.49684,10.51666 2,14 0.50317,3.48333 1.40204,9.78333 1.99751,14 0.59546,4.21666 1.51462,10.40382 2.04257,13.74924 0.52796,3.34542 0.95537,6.94542 0.9498,8 -0.0109,2.06934 1.98099,-0.20722 -39.30116,44.91742 -11.23738,12.28334 -21.36804,23.38334 -22.51258,24.66667 -1.5652,1.75499 -2.16474,2.08547 -2.41886,1.33333 z"
     id="path5103"
     inkscape:connector-curvature="0" />
  <path
     style="fill:#80c1ff;fill-opacity:1;stroke:#0000c8;stroke-width:1px;stroke-linecap:butt;stroke-linejoin:miter;stroke-opacity:0"
     d="m 109.47524,30.638378 212.5,10 33.75,210.000002 -37.65939,39.98333 L 285.72524,78.138378 73.813909,71.576618 Z"
     id="path826"
     inkscape:connector-curvature="0" />
  <path
     style="fill:#006acc;fill-opacity:1;stroke:#000000;stroke-width:1px;stroke-linecap:butt;stroke-linejoin:miter;stroke-opacity:0"
     d="m 285.72524,78.138378 36.25,-37.5 33.75,210.000002 -37.27241,40.36197 z"
     id="path828"
     inkscape:connector-curvature="0" />
  <path
     style="fill:#2193f3;fill-opacity:1;stroke:none;stroke-width:0.53266299"
     d="m 70.280779,304.29435 c 0.40938,-0.2181 2.59592,-0.95341 4.85897,-1.63401 2.26305,-0.6806 13.6925,-4.29114 25.398781,-8.02343 11.70629,-3.73229 22.98474,-7.30061 25.06324,-7.92963 2.0785,-0.62901 5.19632,-1.60944 6.9285,-2.17874 1.73219,-0.56929 5.80595,-1.86662 9.05281,-2.88298 12.83879,-4.01884 18.68739,-5.85864 32.45983,-10.21083 3.03317,-0.95852 7.93944,-2.50766 10.90282,-3.44256 2.96339,-0.93489 7.87052,-2.48432 10.90473,-3.44319 3.03421,-0.95885 7.9425,-2.50121 10.90733,-3.42743 2.96482,-0.92624 7.69941,-2.41431 10.52133,-3.30684 2.82191,-0.8925 6.98,-2.19381 9.24019,-2.89179 2.26019,-0.69797 4.718,-1.62936 5.46183,-2.06975 1.26668,-0.74997 1.32034,-1.00517 0.84654,-4.02593 -1.82383,-11.62777 -22.04177,-165.194442 -21.79428,-165.539872 0.16911,-0.23604 1.19133,0.16358 2.27159,0.88806 1.79597,1.20446 53.26734,34.160832 59.51143,38.104292 l 2.68642,1.69661 1.25731,9.79928 c 1.16653,9.09165 2.31208,17.96278 9.83191,76.13798 1.52199,11.77443 3.84629,29.49001 5.16514,39.36793 1.31883,9.87793 2.84243,22.138 3.38576,27.24461 0.54333,5.10659 1.31153,11.23558 1.70711,13.61994 0.39548,2.38438 0.59881,4.3551 0.45159,4.37942 -0.41065,0.0678 -71.81313,22.55241 -81.33542,25.61245 -2.67869,0.86081 -9.95373,3.1478 -16.16678,5.08218 -6.21303,1.93438 -13.48859,4.21819 -16.16792,5.07513 -2.67933,0.85694 -7.5276,2.39226 -10.77394,3.41181 -3.24633,1.01957 -8.09551,2.54939 -10.77594,3.39962 -2.68044,0.85023 -7.52977,2.37917 -10.77628,3.39766 -3.24651,1.01846 -8.00424,2.5487 -10.57273,3.40051 -2.56849,0.85182 -5.35076,1.65752 -6.18281,1.79044 -1.63271,0.26087 0.4213,1.53466 -40.526511,-25.13273 -11.14638,-7.25911 -21.21579,-13.79987 -22.3765,-14.53501 -1.58729,-1.00535 -1.92587,-1.43495 -1.36605,-1.7332 z"
     id="path5103-1"
     inkscape:connector-curvature="0" />
  <path
     style="fill:#80c1ff;fill-opacity:1;stroke:#0000c8;stroke-width:0.79899448px;stroke-linecap:butt;stroke-linejoin:miter;stroke-opacity:0"
     d="M 248.06757,106.00641 267.85482,274.82495 106.70391,328.77534 70.280779,304.29435 233.57286,251.13163 211.15186,83.224848 Z"
     id="path826-7"
     inkscape:connector-curvature="0" />
  <path
     style="fill:#006acc;fill-opacity:1;stroke:#000000;stroke-width:0.79899448px;stroke-linecap:butt;stroke-linejoin:miter;stroke-opacity:0"
     d="m 233.57286,251.13163 34.28196,23.69332 -161.15091,53.95039 -36.671221,-24.12663 z"
     id="path828-2"
     inkscape:connector-curvature="0" />
  <path
     style="fill:#2193f3;fill-opacity:1;stroke:none;stroke-width:0.42122069"
     d="m 23.217289,115.65569 c 0.22795,0.28737 1.11136,1.88343 1.96313,3.54678 0.85175,1.66336 5.28826,10.03946 9.85889,18.61353 4.57063,8.57405 8.9528,16.83869 9.73813,18.36584 0.78536,1.52716 1.99208,3.81271 2.68165,5.07898 0.68955,1.2663 2.27897,4.25025 3.53202,6.63104 4.95486,9.41417 7.21903,13.70143 12.56617,23.79434 1.17764,2.22281 3.0815,5.81848 4.23082,7.99038 1.14933,2.17189 3.05354,5.76819 4.23158,7.99174 1.17805,2.22358 3.07691,5.82179 4.2197,7.99604 1.14278,2.17424 2.97469,5.64506 4.0709,7.71294 1.09621,2.06792 2.70071,5.1169 3.56558,6.77557 0.86486,1.65864 1.93945,3.43778 2.38797,3.95364 0.76377,0.87845 0.96993,0.88384 3.25213,0.085 8.78486,-3.07492 125.356431,-40.67598 125.660361,-40.53268 0.2077,0.0979 0.0425,0.94998 -0.36719,1.89346 -0.68107,1.56855 -18.98435,46.29986 -21.16234,51.71854 l -0.93704,2.33128 -7.44325,2.37384 c -6.90576,2.20244 -13.64296,4.35712 -57.82327,18.49308 -8.94191,2.86106 -22.39087,7.19249 -29.886521,9.62538 -7.49565,2.43291 -16.8151,5.36439 -20.70988,6.51443 -3.89475,1.15001 -8.55274,2.62059 -10.35106,3.26793 -1.79842,0.64709 -3.30234,1.0861 -3.34221,0.97509 -0.11127,-0.30977 -27.77164,-52.64724 -31.50826,-59.61825 -1.05116,-1.961 -3.86636,-7.29411 -6.25601,-11.85137 -2.38966,-4.55724 -5.20248,-9.89123 -6.25069,-11.85327 -1.04823,-1.96205 -2.93308,-5.51457 -4.18856,-7.89449 -1.25548,-2.37992 -3.13618,-5.93394 -4.17934,-7.8978 -1.0431596,-1.96385 -2.9231996,-5.5181 -4.1778596,-7.89833 -1.25467,-2.38021 -3.12267,-5.86303 -4.1511,-7.73959 -1.02846,-1.87656 -2.05148996,-3.92597 -2.27340996,-4.55425 -0.43581,-1.23273 -1.13371,0.5463 13.77671956,-35.10344 4.05876,-9.7042 7.71215,-18.46836 8.11865,-19.47593 0.55591,-1.37787 0.84183,-1.70244 1.15359,-1.30946 z"
     id="path5103-2"
     inkscape:connector-curvature="0" />
  <path
     style="fill:#80c1ff;fill-opacity:1;stroke:#0000c8;stroke-width:0.63183099px;stroke-linecap:butt;stroke-linejoin:miter;stroke-opacity:0"
     d="M 202.77964,225.70197 74.283089,265.14052 9.3630294,147.4745 23.217289,115.65569 87.829629,235.09941 215.24183,193.74208 Z"
     id="path826-73"
     inkscape:connector-curvature="0" />
  <path
     style="fill:#006acc;fill-opacity:1;stroke:#000000;stroke-width:0.63183099px;stroke-linecap:butt;stroke-linejoin:miter;stroke-opacity:0"
     d="M 87.829629,235.09941 74.283089,265.14052 9.3630294,147.4745 22.906299,115.5132 Z"
     id="path828-1"
     inkscape:connector-curvature="0" />
  <g
     aria-label="RC"
     transform="matrix(1.4283409,0,0,1.4283409,576.20829,-261.78744)"
     style="font-style:normal;font-variant:normal;font-weight:bold;font-stretch:normal;font-size:192px;line-height:1.25;font-family:Arial;-inkscape-font-specification:'Arial Bold';letter-spacing:0px;word-spacing:0px;fill:#303030;fill-opacity:1;stroke:none"
     id="flowRoot841">
    <path
       d="m -122.48047,323.06204 v -137.4375 h 58.406251 q 22.03125,0 31.96875,3.75 10.03125,3.65625 16.03125,13.125 6,9.46875 6,21.65625 0,15.46875 -9.09375,25.59375 -9.09375,10.03125 -27.1875,12.65625 9,5.25 14.8125,11.53125 5.90625,6.28125 15.84375,22.3125 l 16.7812502,26.8125 H -32.105469 l -20.0625,-29.90625 q -10.6875,-16.03125 -14.625,-20.15625 -3.9375,-4.21875 -8.34375,-5.71875 -4.40625,-1.59375 -13.96875,-1.59375 h -5.625 v 57.375 z m 27.750001,-79.3125 h 20.53125 q 19.96875,0 24.9375,-1.6875 4.96875,-1.6875 7.78125,-5.8125 2.8125,-4.125 2.8125,-10.3125 0,-6.9375 -3.75,-11.15625 -3.65625,-4.3125 -10.40625,-5.4375 -3.375,-0.46875 -20.25,-0.46875 h -21.65625 z"
       style="font-style:normal;font-variant:normal;font-weight:bold;font-stretch:normal;font-family:Arial;-inkscape-font-specification:'Arial Bold';fill:#303030;fill-opacity:1;stroke:none"
       id="path832" />
    <path
       d="m 104.11328,272.53079 26.90625,8.53125 q -6.1875,22.5 -20.625,33.46875 -14.343749,10.875 -36.468749,10.875 -27.375,0 -45,-18.65625 -17.625,-18.75 -17.625,-51.1875 0,-34.3125 17.71875,-53.25 17.71875,-19.03125 46.59375,-19.03125 25.218749,0 40.968749,14.90625 9.375,8.8125 14.0625,25.3125 l -27.46875,6.5625 q -2.4375,-10.6875 -10.218749,-16.875 -7.6875,-6.1875 -18.75,-6.1875 -15.28125,0 -24.84375,10.96875 -9.46875,10.96875 -9.46875,35.53125 0,26.0625 9.375,37.125 9.375,11.0625 24.375,11.0625 11.0625,0 19.03125,-7.03125 7.968749,-7.03125 11.437499,-22.125 z"
       style="font-style:normal;font-variant:normal;font-weight:bold;font-stretch:normal;font-family:Arial;-inkscape-font-specification:'Arial Bold';fill:#303030;fill-opacity:1;stroke:none"
       id="path834" />
  </g>
  <flowRoot
     xml:space="preserve"
     id="flowRoot849"
     style="font-style:normal;font-variant:normal;font-weight:normal;font-stretch:normal;font-size:40px;line-height:1.25;font-family:'Helvetica Black';-inkscape-font-specification:'Helvetica Black, ';letter-spacing:0px;word-spacing:0px;fill:#000000;fill-opacity:1;stroke:none"
     transform="translate(-5.5494523e-7,0.42554899)"><flowRegion
       id="flowRegion851"
       style="font-style:normal;font-variant:normal;font-weight:normal;font-stretch:normal;font-family:'Helvetica Black';-inkscape-font-specification:'Helvetica Black, '"><rect
         id="rect853"
         width="160.78847"
         height="162.06456"
         x="-472.15659"
         y="-233.98935"
         style="font-style:normal;font-variant:normal;font-weight:normal;font-stretch:normal;font-family:'Helvetica Black';-inkscape-font-specification:'Helvetica Black, '" /></flowRegion><flowPara
       id="flowPara855" /></flowRoot>  <g
     aria-label="Platform"
     transform="matrix(2.8474383,0,0,2.8474383,-1554.0318,-108.2015)"
     style="font-style:normal;font-variant:normal;font-weight:bold;font-stretch:normal;font-size:96px;line-height:1.25;font-family:Arial;-inkscape-font-specification:'Arial Bold';letter-spacing:0px;word-spacing:0px;fill:#2193f3;fill-opacity:1;stroke:none"
     id="flowRoot879">
    <path
       d="M 851.76172,108.12867 V 39.409925 h 22.26562 q 12.65625,0 16.5,1.03125 5.90625,1.546875 9.89063,6.75 3.98437,5.15625 3.98437,13.359375 0,6.328125 -2.29687,10.640625 -2.29688,4.3125 -5.85938,6.796875 -3.51562,2.4375 -7.17187,3.234375 -4.96875,0.984375 -14.39063,0.984375 h -9.04687 v 25.92187 z m 13.875,-57.093745 v 19.5 h 7.59375 q 8.20312,0 10.96875,-1.078125 2.76562,-1.078125 4.3125,-3.375 1.59375,-2.296875 1.59375,-5.34375 0,-3.75 -2.20313,-6.1875 -2.20312,-2.4375 -5.57812,-3.046875 -2.48438,-0.46875 -9.98438,-0.46875 z"
       style=""
       id="path837" />
    <path
       d="M 915.79297,108.12867 V 39.409925 h 13.17187 v 68.718745 z"
       style=""
       id="path839" />
    <path
       d="m 952.26172,73.534925 -11.95313,-2.15625 q 2.01563,-7.21875 6.9375,-10.6875 4.92188,-3.46875 14.625,-3.46875 8.8125,0 13.125,2.109375 4.3125,2.0625 6.04688,5.296875 1.78125,3.1875 1.78125,11.765625 l -0.14063,15.375 q 0,6.5625 0.60938,9.70312 0.65625,3.09375 2.39062,6.65625 h -13.03125 q -0.51562,-1.3125 -1.26562,-3.89062 -0.32813,-1.17188 -0.46875,-1.54688 -3.375,3.28125 -7.21875,4.92188 -3.84375,1.64062 -8.20313,1.64062 -7.6875,0 -12.14062,-4.17187 -4.40625,-4.17188 -4.40625,-10.546875 0,-4.21875 2.01562,-7.5 2.01563,-3.328125 5.625,-5.0625 3.65625,-1.78125 10.5,-3.09375 9.23438,-1.734375 12.79688,-3.234375 v -1.3125 q 0,-3.796875 -1.875,-5.390625 -1.875,-1.640625 -7.07813,-1.640625 -3.51562,0 -5.48437,1.40625 -1.96875,1.359375 -3.1875,4.828125 z m 17.625,10.6875 q -2.53125,0.84375 -8.01563,2.015625 -5.48437,1.171875 -7.17187,2.296875 -2.57813,1.828125 -2.57813,4.640625 0,2.765625 2.0625,4.78125 2.0625,2.015625 5.25,2.015625 3.5625,0 6.79688,-2.34375 2.39062,-1.78125 3.14062,-4.359375 0.51563,-1.6875 0.51563,-6.421875 z"
       style=""
       id="path841" />
    <path
       d="m 1018.6836,58.347425 v 10.5 h -9 v 20.0625 q 0,6.09375 0.2344,7.125 0.2812,0.984375 1.1718,1.640625 0.9375,0.65625 2.25,0.65625 1.8282,0 5.2969,-1.265625 l 1.125,10.218745 q -4.5937,1.96875 -10.4062,1.96875 -3.5625,0 -6.4219,-1.17187 -2.8594,-1.21875 -4.21876,-3.09375 -1.3125,-1.92188 -1.82812,-5.15625 -0.42188,-2.296875 -0.42188,-9.28125 V 68.847425 h -6.04687 v -10.5 h 6.04687 V 48.4568 l 13.21876,-7.6875 v 17.578125 z"
       style=""
       id="path843" />
    <path
       d="m 1022.1523,58.347425 h 7.3125 v -3.75 q 0,-6.28125 1.3125,-9.375 1.3594,-3.09375 4.9219,-5.015625 3.6094,-1.96875 9.0938,-1.96875 5.625,0 11.0156,1.6875 l -1.7813,9.1875 q -3.1406,-0.75 -6.0468,-0.75 -2.8594,0 -4.125,1.359375 -1.2188,1.3125 -1.2188,5.109375 v 3.515625 h 9.8438 V 68.7068 h -9.8438 v 39.42187 h -13.1719 V 68.7068 h -7.3125 z"
       style=""
       id="path845" />
    <path
       d="m 1056.9336,82.534925 q 0,-6.5625 3.2344,-12.703125 3.2343,-6.140625 9.1406,-9.375 5.9531,-3.234375 13.2656,-3.234375 11.2969,0 18.5156,7.359375 7.2188,7.3125 7.2188,18.515625 0,11.296875 -7.3125,18.749995 -7.2656,7.40625 -18.3281,7.40625 -6.8438,0 -13.0782,-3.09375 -6.1875,-3.09375 -9.4218,-9.04687 -3.2344,-6 -3.2344,-14.578125 z m 13.5,0.703125 q 0,7.40625 3.5156,11.34375 3.5156,3.9375 8.6719,3.9375 5.1562,0 8.625,-3.9375 3.5156,-3.9375 3.5156,-11.4375 0,-7.3125 -3.5156,-11.25 -3.4688,-3.9375 -8.625,-3.9375 -5.1563,0 -8.6719,3.9375 -3.5156,3.9375 -3.5156,11.34375 z"
       style=""
       id="path847" />
    <path
       d="m 1131.2773,108.12867 h -13.1718 V 58.347425 h 12.2343 v 7.078125 q 3.1407,-5.015625 5.625,-6.609375 2.5313,-1.59375 5.7188,-1.59375 4.5,0 8.6719,2.484375 l -4.0782,11.484375 q -3.3281,-2.15625 -6.1875,-2.15625 -2.7656,0 -4.6875,1.546875 -1.9218,1.5 -3.0468,5.484375 -1.0782,3.984375 -1.0782,16.6875 z"
       style=""
       id="path849" />
    <path
       d="m 1154.9961,58.347425 h 12.1406 V 65.1443 q 6.5156,-7.921875 15.5156,-7.921875 4.7813,0 8.2969,1.96875 3.5156,1.96875 5.7656,5.953125 3.2813,-3.984375 7.0782,-5.953125 3.7968,-1.96875 8.1093,-1.96875 5.4844,0 9.2813,2.25 3.7969,2.203125 5.6719,6.515625 1.3593,3.1875 1.3593,10.3125 v 31.82812 H 1215.043 V 79.67555 q 0,-7.40625 -1.3594,-9.5625 -1.8281,-2.8125 -5.625,-2.8125 -2.7656,0 -5.2031,1.6875 -2.4375,1.6875 -3.5157,4.96875 -1.0781,3.234375 -1.0781,10.265625 v 23.906245 h -13.1719 V 80.847425 q 0,-7.265625 -0.7031,-9.375 -0.7031,-2.109375 -2.2031,-3.140625 -1.4531,-1.03125 -3.9844,-1.03125 -3.0469,0 -5.4844,1.640625 -2.4375,1.640625 -3.5156,4.734375 -1.0312,3.09375 -1.0312,10.265625 v 24.187495 h -13.1719 z"
       style=""
       id="path851" />
  </g>
</svg>
