<?xml version="1.0" encoding="UTF-8" standalone="no"?>
<!-- Created with Inkscape (http://www.inkscape.org/) -->

<svg
   xmlns:dc="http://purl.org/dc/elements/1.1/"
   xmlns:cc="http://creativecommons.org/ns#"
   xmlns:rdf="http://www.w3.org/1999/02/22-rdf-syntax-ns#"
   xmlns:svg="http://www.w3.org/2000/svg"
   xmlns="http://www.w3.org/2000/svg"
   xmlns:sodipodi="http://sodipodi.sourceforge.net/DTD/sodipodi-0.dtd"
   xmlns:inkscape="http://www.inkscape.org/namespaces/inkscape"
   width="759.82629mm"
   height="321.43988mm"
   viewBox="0 0 759.82629 321.43988"
   version="1.1"
   id="svg8"
   inkscape:export-filename="D:\work\RCWebsite\RCWebsite\src\resources\reporting\ExportOptions.png"
   inkscape:export-xdpi="15.04"
   inkscape:export-ydpi="15.04"
   inkscape:version="0.92.2 (5c3e80d, 2017-08-06)"
   sodipodi:docname="ReportExportOptions.svg">
  <defs
     id="defs2" />
  <sodipodi:namedview
     id="base"
     pagecolor="#ffffff"
     bordercolor="#666666"
     borderopacity="1.0"
     inkscape:pageopacity="0.0"
     inkscape:pageshadow="2"
     inkscape:zoom="0.1"
     inkscape:cx="1663.7999"
     inkscape:cy="933.00563"
     inkscape:document-units="mm"
     inkscape:current-layer="layer1"
     showgrid="false"
     inkscape:window-width="1920"
     inkscape:window-height="1017"
     inkscape:window-x="-8"
     inkscape:window-y="-8"
     inkscape:window-maximized="1" />
  <metadata
     id="metadata5">
    <rdf:RDF>
      <cc:Work
         rdf:about="">
        <dc:format>image/svg+xml</dc:format>
        <dc:type
           rdf:resource="http://purl.org/dc/dcmitype/StillImage" />
        <dc:title></dc:title>
      </cc:Work>
    </rdf:RDF>
  </metadata>
  <g
     inkscape:label="Ebene 1"
     inkscape:groupmode="layer"
     id="layer1"
     transform="translate(-128.92123,230.9111)">
    <path
       id="path815"
       d="m 264.74419,-137.45977 v -82.46393 h -121.2705 c -8.06448,0 -14.55246,6.48798 -14.55246,14.55246 V 75.976319 c 0,8.064492 6.48798,14.552459 14.55246,14.552459 h 203.73443 c 8.0645,0 14.55246,-6.487967 14.55246,-14.552459 V -122.90731 h -82.46393 c -8.00385,0 -14.55246,-6.5486 -14.55246,-14.55246 z M 303.55075,5.6394314 c 0,4.0019261 -3.27432,7.2762296 -7.27623,7.2762296 H 194.4073 c -4.00191,0 -7.27623,-3.2743035 -7.27623,-7.2762296 V 0.78860433 c 0,-4.00192613 3.27432,-7.27622973 7.27623,-7.27622973 h 101.86722 c 4.00191,0 7.27623,3.2743036 7.27623,7.27622973 z m 0,-38.8065474 c 0,4.001928 -3.27432,7.276223 -7.27623,7.276223 H 194.4073 c -4.00191,0 -7.27623,-3.274295 -7.27623,-7.276223 v -4.850835 c 0,-4.001917 3.27432,-7.276223 7.27623,-7.276223 h 101.86722 c 4.00191,0 7.27623,3.274306 7.27623,7.276223 z m 0,-43.657375 v 4.850799 c 0,4.001929 -3.27432,7.276236 -7.27623,7.276236 H 194.4073 c -4.00191,0 -7.27623,-3.274307 -7.27623,-7.276236 v -4.850799 c 0,-4.001934 3.27432,-7.276236 7.27623,-7.276236 h 101.86722 c 4.00191,0 7.27623,3.274302 7.27623,7.276236 z m 58.20983,-69.184829 v 3.69876 h -77.61309 v -77.61314 h 3.69873 c 3.88066,0 7.57942,1.5159 10.30799,4.24447 l 59.36192,59.42256 c 2.72857,2.72859 4.24445,6.42732 4.24445,10.24735 z"
       inkscape:connector-curvature="0"
       style="fill:#2193f3;fill-opacity:1;stroke-width:0.60635239" />
    <path
       id="path826"
       d="m 876.04755,-116.63677 h -110.0668 c -7.0141,0 -12.7,5.6859 -12.7,12.7 v 76.200006 c 0,7.01411 5.6859,12.700001 12.7,12.700001 h 110.0668 c 7.0141,0 12.7,-5.685891 12.7,-12.700001 v -76.200006 c 0,-7.0141 -5.6859,-12.7 -12.7,-12.7 z m -1.5875,88.900006 h -106.8918 a 1.5875,1.5875 0 0 1 -1.5875,-1.5875 v -73.025006 a 1.5875,1.5875 0 0 1 1.5875,-1.5875 h 106.8918 a 1.5875,1.5875 0 0 1 1.5875,1.5875 v 73.025006 a 1.5875,1.5875 0 0 1 -1.5875,1.5875 z m -87.3126,-65.616659 c -5.8449,0 -10.5834,4.73842 -10.5834,10.58333 0,5.84491 4.7385,10.58333 10.5834,10.58333 5.8449,0 10.5833,-4.73842 10.5833,-10.58333 0,-5.84491 -4.7384,-10.58333 -10.5833,-10.58333 z m -8.4667,52.91666 h 84.6668 v -21.16666 l -23.1551,-23.15501 c -1.2399,-1.23984 -3.2502,-1.23984 -4.4903,0 l -31.6214,31.62167 -10.455,-10.45501 c -1.2398,-1.23983 -3.2501,-1.23983 -4.4902,0 l -10.4548,10.45501 z"
       inkscape:connector-curvature="0"
       style="fill:#2193f3;fill-opacity:1;stroke-width:0.26458332" />
    <path
       id="path837"
       d="m 732.43042,-19.182293 -22.19849,-22.19854 c -2.3813,-2.38125 -5.6092,-3.73063 -8.9694,-3.73063 h -54.00149 c -7.01146,0.0265 -12.7,5.715 -12.7,12.72646 V 77.681668 c 0,7.01146 5.68854,12.7 12.7,12.7 h 76.19999 c 7.01149,0 12.7,-5.68854 12.7,-12.7 v -87.868129 c 0,-3.360212 -1.3493,-6.614582 -3.73061,-8.995832 z m -10.0012,7.963959 h -20.1348 V -31.353123 Z M 647.26103,77.681668 V -32.385003 h 42.3333 v 27.5166722 c 0,3.51895 2.83109,6.35 6.3501,6.35 h 27.5166 V 77.681668 Z m 58.23479,-55.033339 c -1.5081,0 -2.8045,1.05834 -3.0956,2.51355 -5.45039,25.8498 -5.3975,25.24125 -5.5562,27.38438 -0.053,-0.3175 -0.1059,-0.68792 -0.1852,-1.13771 -0.21169,-1.34937 0.079,0.0529 -6.24429,-26.32605 -0.3439,-1.42875 -1.6139,-2.43417 -3.0956,-2.43417 h -3.51891 c -1.4552,0 -2.72519,1.00542 -3.09569,2.40771 -6.45579,26.19376 -6.34996,25.45293 -6.56164,27.4373 -0.0265,-0.29104 -0.0529,-0.66145 -0.13229,-1.11125 -0.18521,-1.37583 -3.73062,-19.39396 -5.05354,-26.19376 -0.29103,-1.48166 -1.5875,-2.56646 -3.12208,-2.56646 h -4.445 c -2.06375,0 -3.57188,1.93146 -3.09563,3.91584 2.11667,8.62542 7.06438,28.97188 8.78417,35.98334 0.34396,1.42874 1.61396,2.40771 3.09562,2.40771 h 6.66748 c 1.4552,0 2.7252,-0.97897 3.0692,-2.40771 l 4.736,-18.89125 c 0.3969,-1.64041 0.6615,-3.17501 0.7938,-4.5773 l 0.7673,4.5773 c 0.027,0.10584 3.3337,13.36146 4.736,18.89125 0.34401,1.40229 1.614,2.40771 3.0692,2.40771 h 6.53521 c 1.45519,0 2.72519,-0.97897 3.0692,-2.40771 5.50329,-21.66937 7.9904,-31.48542 9.1281,-35.98334 0.5027,-2.01083 -1.0054,-3.94229 -3.0691,-3.94229 h -4.18051 z"
       inkscape:connector-curvature="0"
       style="fill:#2193f3;fill-opacity:1;stroke-width:0.26458332" />
    <path
       id="path848"
       d="m 613.36799,-19.633278 -22.1985,-22.19854 c -2.3813,-2.38125 -5.6092,-3.73063 -8.96939,-3.73063 h -54.00154 c -7.0114,0.0265 -12.70001,5.715 -12.70001,12.72646 V 77.230663 c 0,7.01146 5.6886,12.7 12.70001,12.7 h 76.20003 c 7.01151,0 12.70001,-5.68854 12.70001,-12.7 v -87.868112 c 0,-3.36021 -1.34941,-6.614579 -3.73061,-8.995829 z m -10.0012,7.963959 h -20.1348 V -31.804108 Z M 528.19856,77.230663 V -32.835988 H 570.532 v 27.5166682 c 0,3.518951 2.831,6.35 6.35,6.35 h 27.51659 V 77.230663 Z M 594.3974,39.21004 c -3.22791,-3.175 -12.43541,-2.30187 -17.0392,-1.71979 -4.5508,-2.778129 -7.5935,-6.61458 -9.7367,-12.25021 1.0319,-4.25979 2.6723,-10.74208 1.4288,-14.81667 C 567.939,3.4913002 559.049,4.1792202 557.77899,8.8623402 556.6149,13.12212 557.67319,19.04879 559.6311,26.61588 c -2.6458,6.32354 -6.5881,14.816654 -9.3662,19.684984 -5.2917,2.72521 -12.4354,6.932091 -13.4938,12.223751 -0.8731,4.18042 6.87919,14.604997 20.13479,-8.255001 5.9267,-1.95791 12.3825,-4.36562 18.09751,-5.31812 5.0006,2.698751 10.8479,4.49792 14.76379,4.49792 6.7468,0 7.40831,-7.46125 4.63021,-10.239374 z m -52.414,20.584585 c 1.3494,-3.624799 6.4823,-7.80521 8.0434,-9.26042 -5.0271,8.016871 -8.0434,9.445621 -8.0434,9.26042 z M 563.57339,9.3650502 c 1.95791,0 1.7727,8.4931198 0.47631,10.7949898 C 562.8855,16.482331 562.912,9.3650502 563.57339,9.3650502 Z M 557.1176,45.507115 c 2.56639,-4.471451 4.7625,-9.789574 6.5352,-14.472695 2.19599,3.995211 5.0006,7.19666 7.96399,9.392704 -5.5034,1.137701 -10.2923,3.466041 -14.49919,5.079991 z m 34.81919,-1.32291 c 0,0 -1.323,1.5875 -9.86899,-2.06375 9.2869,-0.68792 10.8215,1.42875 9.86899,2.06375 z"
       inkscape:connector-curvature="0"
       style="fill:#2193f3;fill-opacity:1;stroke-width:0.26458332" />
    <path
       id="path859"
       d="m 611.64568,-203.65541 -22.1985,-22.19852 c -2.3812,-2.38126 -5.6092,-3.73064 -8.9694,-3.73064 h -54.00143 c -7.01146,0.0265 -12.7,5.715 -12.7,12.72646 v 110.06665 c 0,7.011463 5.68854,12.700003 12.7,12.700003 h 76.20003 c 7.0114,0 12.7,-5.68854 12.7,-12.700003 v -87.86812 c 0,-3.36021 -1.3494,-6.61457 -3.7307,-8.99583 z m -10.0012,7.96397 h -20.1348 v -20.1348 z m -75.16813,88.89998 v -110.06666 h 42.33333 v 27.51668 c 0,3.51895 2.831,6.35 6.35,6.35 h 27.5167 v 76.19998 z m 56.09163,-63.49999 h -7.62 c -1.1641,0 -2.2225,0.635 -2.7781,1.66687 -4.7625,8.75771 -5.8737,11.21834 -7.5671,15.26646 -3.6777,-7.69937 -1.8256,-4.57729 -7.5671,-15.26646 -0.55558,-1.03187 -1.64037,-1.66687 -2.80454,-1.66687 h -7.64645 c -2.46063,0 -3.96875,2.64583 -2.75167,4.7625 l 12.25021,20.63749 -12.25021,20.6375 c -1.24354,2.11666 0.29104,4.7625 2.75167,4.7625 h 7.64645 c 1.16417,0 2.2225,-0.635 2.77814,-1.66688 5.7414,-10.58333 6.0854,-11.90625 7.5671,-15.26646 3.9423,7.99042 1.561,4.20688 7.5671,15.26646 0.5556,1.03188 1.6404,1.66688 2.8045,1.66688 h 7.62 c 2.4607,0 3.9688,-2.64584 2.7517,-4.7625 l -12.2767,-20.6375 c 0.1852,-0.29105 8.0169,-13.36145 12.2502,-20.63749 1.2436,-2.11667 -0.291,-4.7625 -2.7252,-4.7625 z"
       inkscape:connector-curvature="0"
       style="fill:#2193f3;fill-opacity:1;stroke-width:0.26458332" />
    <path
       id="path881"
       d="m 434.30692,-110.2202 5.87375,-5.87376 c 2.48709,-2.48708 6.50875,-2.48708 8.96938,0 l 51.435,51.408551 c 2.48708,2.48708 2.48708,6.50875 0,8.96937 l -51.435,51.4350002 c -2.48707,2.48708 -6.50875,2.48708 -8.96938,0 l -5.87374,-5.8737502 c -2.51354,-2.51354 -2.46062,-6.61458 0.10584,-9.07521 l 31.88229,-30.37416 h -76.04125 c -3.51896,0 -6.35,-2.83105 -6.35,-6.35 v -8.46667 c 0,-3.51896 2.83103,-6.35 6.35,-6.35 h 76.04125 L 434.41276,-101.145 c -2.59292,-2.46062 -2.64584,-6.56166 -0.10584,-9.0752 z"
       inkscape:connector-curvature="0"
       style="fill:#2193f3;fill-opacity:1;stroke-width:0.26458332" />
    <path
       id="path892"
       d="m 731.82908,-204.98193 -22.1985,-22.19854 c -2.3813,-2.38125 -5.6092,-3.73063 -8.9694,-3.73063 h -54.00146 c -7.0114,0.0265 -12.7,5.715 -12.7,12.72646 v 110.06666 c 0,7.01146 5.6886,12.7 12.7,12.7 h 76.19996 c 7.0115,0 12.7,-5.68854 12.7,-12.7 v -87.86811 c 0,-3.36021 -1.3494,-6.61458 -3.7306,-8.99584 z m -10.0012,7.96396 h -20.1348 v -20.1348 z m -75.16816,88.89999 v -110.06667 h 42.33336 v 27.51669 c 0,3.51894 2.831,6.34999 6.35,6.34999 h 27.5166 v 76.19999 z m 19.05,-15.87501 v -44.44999 c 0,-1.74624 1.4288,-3.175 3.175,-3.175 h 18.30916 c 9.7102,0 16.6158,7.14375 16.6158,17.54187 0,19.65853 -18.1769,17.59478 -25.26766,17.59478 v 12.48834 c 0,1.74625 -1.4287,3.175 -3.175,3.175 h -6.4823 c -1.7462,0 -3.175,-1.42875 -3.175,-3.175 z m 12.8323,-23.12458 h 6.08536 c 2.0902,0 3.6777,-0.635 4.789,-1.905 2.2489,-2.59291 2.2225,-7.54062 0.026,-10.00126 -1.0848,-1.21707 -2.6194,-1.85208 -4.6038,-1.85208 h -6.32346 v 13.75834 z"
       inkscape:connector-curvature="0"
       style="fill:#2193f3;fill-opacity:1;stroke-width:0.26458332" />
    <flowRoot
       xml:space="preserve"
       id="flowRoot919"
       style="font-style:normal;font-variant:normal;font-weight:normal;font-stretch:normal;font-size:40px;line-height:1.25;font-family:Roboto;-inkscape-font-specification:Roboto;letter-spacing:0px;word-spacing:0px;display:inline;fill:#282828;fill-opacity:1;stroke:none"
       transform="matrix(0.26458333,0,0,0.26458333,39.386837,-522.11932)"><flowRegion
         id="flowRegion921"
         style="fill:#282828;fill-opacity:1"><rect
           id="rect923"
           width="825"
           height="506.25"
           x="543.75"
           y="2147.5886"
           style="fill:#282828;fill-opacity:1" /></flowRegion><flowPara
         id="flowPara925"
         style="font-size:133.33332825px;fill:#282828;fill-opacity:1">Report</flowPara></flowRoot>  </g>
</svg>
